<?xml version="1.0" encoding="UTF-8"?><svg id="Layer_2" xmlns="http://www.w3.org/2000/svg" viewBox="0 0 650 650"><defs><style>.cls-1{fill:#455af4;stroke-width:0px;}</style></defs><g id="Logo_Symbol_Color"><g id="Symbol"><path class="cls-1" d="m497.59,202.41c22.07-18.39,39.65-33.73,52.76-46.03,13.1-12.3,24.02-25.11,32.76-38.45,8.73-13.33,13.1-26.43,13.1-39.31,0-11.72-2.76-20.91-8.28-27.59-5.52-6.67-14.02-10-25.52-10s-20.34,3.85-26.55,11.55c-6.21,7.7-9.43,18.22-9.66,31.55h-46.9c.91-27.59,9.14-48.5,24.65-62.76,15.52-14.25,35.23-21.38,59.14-21.38,26.21,0,46.32,6.96,60.35,20.86,14.02,13.91,21.03,32.24,21.03,55,0,17.93-4.83,35.06-14.48,51.38-9.66,16.33-20.69,30.52-33.1,42.59-12.41,12.07-28.62,26.61-48.62,43.62h101.72v40h-170.34v-35.86l17.93-15.17Z"/><path class="cls-1" d="m417.74,345.66v-161.89H0v304.34c0,89.41,72.48,161.89,161.89,161.89h93.96c89.41,0,161.89-72.48,161.89-161.89h0s-77.43,0-77.43,0h0c0,50.93-41.28,92.21-92.21,92.21h-78.46c-50.93,0-92.21-41.28-92.21-92.21v-234.66h262.88v92.21h77.43Z"/></g></g></svg>