<?xml version="1.0" encoding="UTF-8"?><svg id="Layer_2" xmlns="http://www.w3.org/2000/svg" viewBox="0 0 650 219.56"><defs><style>.cls-1{fill:#fff;stroke-width:0px;}</style></defs><g id="Logo_Small_White"><g id="Logo"><path class="cls-1" d="m599.12,67.58c7.37-6.14,13.24-11.26,17.61-15.37,4.37-4.11,8.02-8.38,10.94-12.84,2.92-4.45,4.37-8.83,4.37-13.12,0-3.91-.92-6.98-2.76-9.21-1.84-2.23-4.68-3.34-8.52-3.34s-6.79,1.29-8.87,3.86c-2.07,2.57-3.15,6.08-3.22,10.53h-15.66c.31-9.21,3.05-16.19,8.23-20.95,5.18-4.76,11.76-7.14,19.74-7.14,8.75,0,15.46,2.32,20.15,6.96,4.68,4.64,7.02,10.76,7.02,18.36,0,5.99-1.61,11.71-4.84,17.15-3.22,5.45-6.91,10.19-11.05,14.22-4.14,4.03-9.55,8.89-16.23,14.56h33.96v13.35h-56.87v-11.97l5.99-5.07Z"/><path class="cls-1" d="m166.48,96.71c6.44-12.02,15.29-21.35,26.56-27.98,11.26-6.63,23.81-9.94,37.64-9.94s25.47,2.94,35.5,8.8c10.04,5.87,17.51,13.26,22.44,22.16v-28.4h26.13v155.65h-26.13v-28.97c-5.11,9.09-12.74,16.62-22.86,22.58-10.13,5.97-21.92,8.95-35.36,8.95s-26.32-3.41-37.49-10.22c-11.18-6.82-19.98-16.38-26.42-28.69-6.44-12.3-9.65-26.32-9.65-42.04s3.22-29.87,9.65-41.9Zm115.04,11.5c-4.73-8.71-11.13-15.38-19.17-20.02-8.05-4.64-16.9-6.96-26.56-6.96s-18.46,2.27-26.42,6.82c-7.95,4.54-14.3,11.17-19.03,19.88-4.73,8.71-7.1,18.94-7.1,30.67s2.37,22.3,7.1,31.11c4.73,8.8,11.08,15.53,19.03,20.16,7.96,4.64,16.76,6.96,26.42,6.96s18.51-2.32,26.56-6.96c8.04-4.64,14.44-11.36,19.17-20.16,4.73-8.81,7.1-19.08,7.1-30.82s-2.37-21.96-7.1-30.68Z"/><path class="cls-1" d="m413.31,82.66h-32.67v134.35h-25.85V82.66h-20.17v-21.3h20.17v-11.08c0-17.42,4.5-30.15,13.49-38.21,8.99-8.04,23.43-12.07,43.32-12.07v21.59c-11.36,0-19.36,2.23-24,6.68-4.64,4.45-6.96,11.79-6.96,22.01v11.08h32.67v21.3Z"/><path class="cls-1" d="m576.06,148.84h-124.41c.95,15.34,6.2,27.31,15.76,35.93,9.56,8.62,21.16,12.93,34.8,12.93,11.17,0,20.5-2.6,27.98-7.81,7.48-5.2,12.73-12.16,15.76-20.88h27.83c-4.16,14.96-12.5,27.13-24.99,36.5s-28.03,14.06-46.58,14.06c-14.77,0-27.98-3.31-39.62-9.94-11.65-6.63-20.78-16.05-27.41-28.26-6.63-12.21-9.94-26.37-9.94-42.46s3.22-30.2,9.65-42.32c6.44-12.12,15.48-21.45,27.13-27.98,11.65-6.53,25.04-9.8,40.19-9.8s27.83,3.22,39.2,9.66c11.36,6.44,20.12,15.29,26.27,26.56,6.15,11.27,9.23,24,9.23,38.2,0,4.93-.28,10.14-.85,15.63Zm-32.38-46.44c-4.36-7.1-10.27-12.5-17.75-16.19-7.48-3.69-15.76-5.54-24.85-5.54-13.07,0-24.19,4.17-33.37,12.5-9.19,8.33-14.44,19.88-15.76,34.65h98.28c0-9.84-2.18-18.32-6.53-25.42Zm-14.77-79.96l-60.5,32.38v-19.31L528.91,0v22.44Z"/><path class="cls-1" d="m139.46,115.4v-54.05H0v101.6c0,29.85,24.2,54.05,54.05,54.05h31.37c29.85,0,54.05-24.2,54.05-54.05h0s-25.85,0-25.85,0h0c0,17-13.78,30.79-30.79,30.79h-26.19c-17,0-30.79-13.78-30.79-30.79v-78.34h87.76v30.79h25.85Z"/></g></g></svg>